<svg xmlns="http://www.w3.org/2000/svg" xmlns:xlink="http://www.w3.org/1999/xlink" width="720" zoomAndPan="magnify" viewBox="0 0 540 374.999991" height="500" preserveAspectRatio="xMidYMid meet" version="1.0"><defs><g/><clipPath id="7909665bbf"><path d="M 133.585938 51.085938 L 406.414062 51.085938 L 406.414062 323.914062 L 133.585938 323.914062 Z M 133.585938 51.085938 " clip-rule="nonzero"/></clipPath><clipPath id="3bfaf29550"><path d="M 270 51.085938 C 194.660156 51.085938 133.585938 112.160156 133.585938 187.5 C 133.585938 262.839844 194.660156 323.914062 270 323.914062 C 345.339844 323.914062 406.414062 262.839844 406.414062 187.5 C 406.414062 112.160156 345.339844 51.085938 270 51.085938 " clip-rule="nonzero"/></clipPath><clipPath id="e35fea7292"><path d="M 142.585938 60 L 397.71875 60 L 397.71875 315 L 142.585938 315 Z M 142.585938 60 " clip-rule="nonzero"/></clipPath><clipPath id="432ab3bcba"><path d="M 270 314.914062 C 235.980469 314.914062 203.949219 301.671875 179.914062 277.585938 C 155.828125 253.550781 142.585938 221.519531 142.585938 187.5 C 142.585938 153.480469 155.828125 121.449219 179.914062 97.414062 C 203.949219 73.328125 235.980469 60.085938 270 60.085938 C 304.019531 60.085938 336.050781 73.328125 360.085938 97.414062 C 384.171875 121.5 397.414062 153.480469 397.414062 187.5 C 397.414062 221.519531 384.171875 253.550781 360.085938 277.585938 C 336.050781 301.671875 304.019531 314.914062 270 314.914062 Z M 270 67.726562 C 238.019531 67.726562 207.921875 80.203125 185.3125 102.8125 C 162.703125 125.421875 150.226562 155.519531 150.226562 187.5 C 150.226562 219.480469 162.703125 249.578125 185.3125 272.1875 C 207.921875 294.796875 238.019531 307.273438 270 307.273438 C 301.980469 307.273438 332.078125 294.796875 354.6875 272.1875 C 377.296875 249.578125 389.773438 219.480469 389.773438 187.5 C 389.773438 155.519531 377.296875 125.421875 354.6875 102.8125 C 332.078125 80.203125 301.980469 67.726562 270 67.726562 Z M 270 67.726562 " clip-rule="nonzero"/></clipPath><clipPath id="fa8db74aa0"><path d="M 192.839844 111.183594 L 345.089844 111.183594 L 345.089844 231.183594 L 192.839844 231.183594 Z M 192.839844 111.183594 " clip-rule="nonzero"/></clipPath></defs><g clip-path="url(#7909665bbf)"><g clip-path="url(#3bfaf29550)"><path fill="#eafffd" d="M 133.585938 51.085938 L 406.414062 51.085938 L 406.414062 323.914062 L 133.585938 323.914062 Z M 133.585938 51.085938 " fill-opacity="1" fill-rule="nonzero"/></g></g><g clip-path="url(#e35fea7292)"><g clip-path="url(#432ab3bcba)"><path fill="#004aad" d="M 142.585938 60.085938 L 397.210938 60.085938 L 397.210938 314.710938 L 142.585938 314.710938 Z M 142.585938 60.085938 " fill-opacity="1" fill-rule="nonzero"/></g></g><g fill="#004aad" fill-opacity="1"><g transform="translate(171.808717, 228.582731)"><g><path d="M 12.359375 -4.171875 L 14.640625 0.453125 C 15.347656 1.910156 15.550781 3.207031 15.25 4.34375 C 14.957031 5.488281 14.179688 6.375 12.921875 7 C 11.609375 7.632812 10.390625 7.726562 9.265625 7.28125 C 8.148438 6.84375 7.238281 5.894531 6.53125 4.4375 L 5.203125 1.765625 L 1.703125 3.484375 L 0.75 1.53125 Z M 11.5625 -1.359375 L 6.96875 0.90625 L 8.25 3.5 C 9.164062 5.363281 10.398438 5.910156 11.953125 5.140625 C 13.460938 4.398438 13.757812 3.097656 12.84375 1.234375 Z M 11.5625 -1.359375 "/></g></g></g><g fill="#004aad" fill-opacity="1"><g transform="translate(178.469013, 241.877731)"><g><path d="M 17.859375 3.09375 L 11.625 7.40625 C 10.238281 8.363281 8.859375 8.707031 7.484375 8.4375 C 6.117188 8.164062 4.9375 7.304688 3.9375 5.859375 C 2.945312 4.421875 2.566406 3.015625 2.796875 1.640625 C 3.023438 0.265625 3.832031 -0.898438 5.21875 -1.859375 L 11.453125 -6.171875 L 12.703125 -4.375 L 6.46875 -0.0625 C 5.582031 0.550781 5.054688 1.289062 4.890625 2.15625 C 4.734375 3.019531 4.957031 3.890625 5.5625 4.765625 C 6.164062 5.640625 6.894531 6.15625 7.75 6.3125 C 8.613281 6.46875 9.492188 6.234375 10.390625 5.609375 L 16.625 1.296875 Z M 17.859375 3.09375 "/></g></g></g><g fill="#004aad" fill-opacity="1"><g transform="translate(188.073454, 255.388456)"><g><path d="M 6.8125 7.203125 L 8.03125 2.796875 C 7.945312 2.703125 7.8125 2.554688 7.625 2.359375 L 5.5 0.125 L 2.65625 2.8125 L 1.171875 1.234375 L 10.578125 -7.65625 L 14.1875 -3.84375 C 15.3125 -2.644531 15.90625 -1.445312 15.96875 -0.25 C 16.039062 0.9375 15.566406 2.015625 14.546875 2.984375 C 13.796875 3.691406 13.003906 4.125 12.171875 4.28125 C 11.335938 4.4375 10.5 4.316406 9.65625 3.921875 L 8.515625 9 Z M 6.90625 -1.21875 L 9.03125 1.015625 C 10.46875 2.535156 11.820312 2.703125 13.09375 1.515625 C 14.3125 0.359375 14.203125 -0.976562 12.765625 -2.5 L 10.640625 -4.734375 Z M 6.90625 -1.21875 "/></g></g></g><g fill="#004aad" fill-opacity="1"><g transform="translate(199.04662, 266.682527)"><g><path d="M 15.390625 -1.8125 L 9.859375 -6.203125 L 7.6875 -3.453125 L 12.65625 0.484375 L 11.4375 2.015625 L 6.46875 -1.921875 L 4.25 0.875 L 9.96875 5.40625 L 8.75 6.9375 L 1.328125 1.0625 L 9.375 -9.078125 L 16.609375 -3.34375 Z M 15.390625 -1.8125 "/></g></g></g><g fill="#004aad" fill-opacity="1"><g transform="translate(210.340807, 275.279904)"><g/></g></g><g fill="#004aad" fill-opacity="1"><g transform="translate(216.099012, 279.151224)"><g><path d="M 7.28125 -10.84375 L 12.015625 -8.484375 C 13.753906 -7.617188 14.914062 -6.359375 15.5 -4.703125 C 16.09375 -3.046875 15.972656 -1.378906 15.140625 0.296875 C 14.304688 1.972656 13.050781 3.078125 11.375 3.609375 C 9.695312 4.140625 7.984375 3.96875 6.234375 3.09375 L 1.53125 0.75 Z M 8.359375 -8.125 L 4.34375 -0.03125 L 7.203125 1.390625 C 8.335938 1.953125 9.46875 2.039062 10.59375 1.65625 C 11.726562 1.28125 12.582031 0.507812 13.15625 -0.65625 C 13.738281 -1.832031 13.832031 -3 13.4375 -4.15625 C 13.050781 -5.3125 12.28125 -6.175781 11.125 -6.75 Z M 8.359375 -8.125 "/></g></g></g><g fill="#004aad" fill-opacity="1"><g transform="translate(231.240337, 286.429449)"><g><path d="M 10.46875 0.25 L 4.25 -1.71875 L 2.1875 0.6875 L 0.015625 0 L 9.359375 -10.625 L 11.484375 -9.9375 L 13 4.109375 L 10.765625 3.40625 Z M 10.265625 -1.859375 L 9.65625 -8.0625 L 5.609375 -3.328125 Z M 10.265625 -1.859375 "/></g></g></g><g fill="#004aad" fill-opacity="1"><g transform="translate(246.39719, 290.854779)"><g><path d="M 3.796875 0.75 L 1.671875 0.328125 L 4.171875 -12.359375 L 6.296875 -11.9375 Z M 3.796875 0.75 "/></g></g></g><g fill="#004aad" fill-opacity="1"><g transform="translate(253.863266, 292.333614)"><g><path d="M 4.0625 -1.578125 L 9.640625 -1 L 9.4375 0.96875 L 1.6875 0.171875 L 3.015625 -12.703125 L 5.1875 -12.484375 Z M 4.0625 -1.578125 "/></g></g></g><g fill="#004aad" fill-opacity="1"><g transform="translate(265.926578, 293.498351)"><g><path d="M 6.90625 -4.453125 L 7 -0.140625 L 4.84375 -0.09375 L 4.75 -4.328125 L -0.25 -12.9375 L 1.953125 -12.984375 L 5.78125 -6.765625 L 9.265625 -13.125 L 11.484375 -13.171875 Z M 6.90625 -4.453125 "/></g></g></g><g fill="#004aad" fill-opacity="1"><g transform="translate(279.746107, 292.944705)"><g/></g></g><g fill="#004aad" fill-opacity="1"><g transform="translate(286.574413, 292.224705)"><g><path d="M -1.15625 -13 L 3.890625 -14.109375 C 5.472656 -14.460938 6.785156 -14.359375 7.828125 -13.796875 C 8.867188 -13.242188 9.546875 -12.28125 9.859375 -10.90625 C 10.171875 -9.476562 9.976562 -8.273438 9.28125 -7.296875 C 8.582031 -6.316406 7.441406 -5.648438 5.859375 -5.296875 L 2.9375 -4.65625 L 3.78125 -0.84375 L 1.65625 -0.375 Z M 1.390625 -11.5625 L 2.515625 -6.5625 L 5.34375 -7.1875 C 7.375 -7.632812 8.195312 -8.707031 7.8125 -10.40625 C 7.445312 -12.039062 6.25 -12.632812 4.21875 -12.1875 Z M 1.390625 -11.5625 "/></g></g></g><g fill="#004aad" fill-opacity="1"><g transform="translate(301.028376, 288.868153)"><g><path d="M 9.265625 -3.515625 L 5.671875 -6.359375 C 5.546875 -6.296875 5.359375 -6.21875 5.109375 -6.125 L 2.234375 -5.03125 L 3.625 -1.375 L 1.59375 -0.609375 L -3 -12.703125 L 1.90625 -14.5625 C 3.445312 -15.144531 4.78125 -15.238281 5.90625 -14.84375 C 7.03125 -14.445312 7.835938 -13.585938 8.328125 -12.265625 C 8.703125 -11.304688 8.800781 -10.410156 8.625 -9.578125 C 8.445312 -8.753906 8.015625 -8.035156 7.328125 -7.421875 L 11.578125 -4.40625 Z M 1.546875 -6.859375 L 4.421875 -7.953125 C 6.378906 -8.691406 7.050781 -9.875 6.4375 -11.5 C 5.832031 -13.0625 4.550781 -13.472656 2.59375 -12.734375 L -0.28125 -11.640625 Z M 1.546875 -6.859375 "/></g></g></g><g fill="#004aad" fill-opacity="1"><g transform="translate(315.805325, 283.112443)"><g><path d="M -3.265625 -10.9375 C -2.742188 -12.6875 -1.644531 -14.039062 0.03125 -15 C 1.71875 -15.957031 3.441406 -16.21875 5.203125 -15.78125 C 6.972656 -15.351562 8.316406 -14.335938 9.234375 -12.734375 C 10.148438 -11.140625 10.347656 -9.460938 9.828125 -7.703125 C 9.316406 -5.953125 8.21875 -4.597656 6.53125 -3.640625 C 4.851562 -2.679688 3.128906 -2.421875 1.359375 -2.859375 C -0.410156 -3.304688 -1.753906 -4.328125 -2.671875 -5.921875 C -3.585938 -7.523438 -3.785156 -9.195312 -3.265625 -10.9375 Z M 1.03125 -13.3125 C -0.0820312 -12.664062 -0.816406 -11.734375 -1.171875 -10.515625 C -1.523438 -9.296875 -1.382812 -8.128906 -0.75 -7.015625 C -0.113281 -5.910156 0.820312 -5.195312 2.0625 -4.875 C 3.3125 -4.550781 4.484375 -4.703125 5.578125 -5.328125 C 6.679688 -5.960938 7.398438 -6.894531 7.734375 -8.125 C 8.078125 -9.351562 7.929688 -10.519531 7.296875 -11.625 C 6.660156 -12.738281 5.726562 -13.453125 4.5 -13.765625 C 3.28125 -14.085938 2.125 -13.9375 1.03125 -13.3125 Z M 1.03125 -13.3125 "/></g></g></g><g fill="#004aad" fill-opacity="1"><g transform="translate(330.872103, 274.219701)"><g><path d="M -6.828125 -11.125 L -2.71875 -14.453125 C -1.21875 -15.679688 0.40625 -16.21875 2.15625 -16.0625 C 3.914062 -15.914062 5.382812 -15.113281 6.5625 -13.65625 C 7.75 -12.207031 8.226562 -10.609375 8 -8.859375 C 7.78125 -7.109375 6.910156 -5.613281 5.390625 -4.375 L 1.328125 -1.078125 Z M -3.90625 -10.96875 L 1.78125 -3.953125 L 4.25 -5.96875 C 5.238281 -6.769531 5.789062 -7.765625 5.90625 -8.953125 C 6.03125 -10.140625 5.679688 -11.238281 4.859375 -12.25 C 4.035156 -13.269531 3.015625 -13.835938 1.796875 -13.953125 C 0.585938 -14.078125 -0.515625 -13.734375 -1.515625 -12.921875 Z M -3.90625 -10.96875 "/></g></g></g><g fill="#004aad" fill-opacity="1"><g transform="translate(343.798093, 263.45833)"><g><path d="M -1.140625 -18.09375 L 4.5 -13.03125 C 5.75 -11.90625 6.398438 -10.644531 6.453125 -9.25 C 6.515625 -7.851562 5.957031 -6.503906 4.78125 -5.203125 C 3.613281 -3.898438 2.332031 -3.195312 0.9375 -3.09375 C -0.457031 -3 -1.78125 -3.515625 -3.03125 -4.640625 L -8.671875 -9.703125 L -7.203125 -11.34375 L -1.5625 -6.28125 C -0.757812 -5.5625 0.078125 -5.21875 0.953125 -5.25 C 1.828125 -5.289062 2.625 -5.710938 3.34375 -6.515625 C 4.050781 -7.304688 4.378906 -8.132812 4.328125 -9 C 4.273438 -9.875 3.84375 -10.675781 3.03125 -11.40625 L -2.609375 -16.46875 Z M -1.140625 -18.09375 "/></g></g></g><g fill="#004aad" fill-opacity="1"><g transform="translate(354.686093, 250.983399)"><g><path d="M -6.796875 -13.359375 C -6.296875 -14.117188 -5.65625 -14.757812 -4.875 -15.28125 C -4.101562 -15.8125 -3.285156 -16.164062 -2.421875 -16.34375 L -1.78125 -14.421875 C -2.46875 -14.304688 -3.109375 -14.0625 -3.703125 -13.6875 C -4.296875 -13.3125 -4.773438 -12.851562 -5.140625 -12.3125 C -5.847656 -11.226562 -6.078125 -10.066406 -5.828125 -8.828125 C -5.585938 -7.597656 -4.9375 -6.632812 -3.875 -5.9375 C -2.800781 -5.238281 -1.648438 -5.019531 -0.421875 -5.28125 C 0.796875 -5.550781 1.757812 -6.226562 2.46875 -7.3125 C 3.207031 -8.425781 3.441406 -9.710938 3.171875 -11.171875 L 5.078125 -11.4375 C 5.273438 -10.539062 5.285156 -9.613281 5.109375 -8.65625 C 4.941406 -7.707031 4.609375 -6.859375 4.109375 -6.109375 C 3.078125 -4.523438 1.675781 -3.535156 -0.09375 -3.140625 C -1.863281 -2.742188 -3.523438 -3.054688 -5.078125 -4.078125 C -6.609375 -5.078125 -7.539062 -6.472656 -7.875 -8.265625 C -8.207031 -10.054688 -7.847656 -11.753906 -6.796875 -13.359375 Z M -6.796875 -13.359375 "/></g></g></g><g fill="#004aad" fill-opacity="1"><g transform="translate(362.835845, 238.159105)"><g><path d="M -5.34375 -14.25 L -7.125 -10.546875 L 2.78125 -5.796875 L 1.84375 -3.828125 L -8.0625 -8.578125 L -9.828125 -4.90625 L -11.578125 -5.765625 L -7.09375 -15.109375 Z M -5.34375 -14.25 "/></g></g></g><g fill="#004aad" fill-opacity="1"><g transform="translate(192.340032, 139.994889)"><g><path d="M -2.703125 -21.3125 L -8.046875 -14.046875 L -4.59375 -11.5 L 0.3125 -18.1875 L 3.296875 -16 L -1.609375 -9.3125 L 3.875 -5.28125 L 1.09375 -1.484375 L -13.8125 -12.4375 L -5.6875 -23.5 Z M -2.703125 -21.3125 "/></g></g></g><g fill="#004aad" fill-opacity="1"><g transform="translate(203.282423, 125.245185)"><g><path d="M 9.796875 -8.546875 L 4.296875 -10.671875 L 4.203125 -10.578125 L 1.515625 -8.234375 L 4.9375 -4.3125 L 1.390625 -1.21875 L -10.78125 -15.15625 L -4.546875 -20.59375 C -2.703125 -22.207031 -0.90625 -23.03125 0.84375 -23.0625 C 2.59375 -23.101562 4.144531 -22.347656 5.5 -20.796875 C 7.375 -18.640625 7.832031 -16.410156 6.875 -14.109375 L 13.8125 -12.0625 Z M -0.921875 -11.015625 L 1.765625 -13.359375 C 2.535156 -14.035156 2.960938 -14.75 3.046875 -15.5 C 3.140625 -16.257812 2.863281 -17.003906 2.21875 -17.734375 C 1.601562 -18.453125 0.921875 -18.8125 0.171875 -18.8125 C -0.578125 -18.8125 -1.335938 -18.472656 -2.109375 -17.796875 L -4.796875 -15.453125 Z M -0.921875 -11.015625 "/></g></g></g><g fill="#004aad" fill-opacity="1"><g transform="translate(219.638429, 111.411185)"><g><path d="M 7.453125 -20.734375 L -1.171875 -16.140625 L 0.546875 -12.890625 L 8.328125 -17.046875 L 10.078125 -13.78125 L 2.296875 -9.625 L 4.046875 -6.34375 L 12.9375 -11.078125 L 14.671875 -7.8125 L 1.625 -0.859375 L -7.078125 -17.1875 L 5.703125 -24 Z M 7.453125 -20.734375 "/></g></g></g><g fill="#004aad" fill-opacity="1"><g transform="translate(237.611644, 102.181926)"><g><path d="M 3.609375 -20.421875 C 6.273438 -21.160156 8.804688 -21.148438 11.203125 -20.390625 L 10.484375 -16.375 C 9.390625 -16.664062 8.257812 -16.832031 7.09375 -16.875 C 5.925781 -16.925781 4.976562 -16.851562 4.25 -16.65625 C 2.945312 -16.289062 2.421875 -15.671875 2.671875 -14.796875 C 2.816406 -14.242188 3.257812 -13.882812 4 -13.71875 C 4.738281 -13.5625 5.601562 -13.488281 6.59375 -13.5 C 7.59375 -13.519531 8.601562 -13.484375 9.625 -13.390625 C 10.644531 -13.296875 11.582031 -12.945312 12.4375 -12.34375 C 13.300781 -11.75 13.898438 -10.859375 14.234375 -9.671875 C 14.703125 -7.953125 14.398438 -6.425781 13.328125 -5.09375 C 12.265625 -3.757812 10.695312 -2.804688 8.625 -2.234375 C 7.15625 -1.816406 5.625 -1.660156 4.03125 -1.765625 C 2.445312 -1.878906 1 -2.226562 -0.3125 -2.8125 L 0.46875 -6.796875 C 1.582031 -6.265625 2.820312 -5.914062 4.1875 -5.75 C 5.550781 -5.582031 6.707031 -5.632812 7.65625 -5.90625 C 8.382812 -6.101562 8.910156 -6.394531 9.234375 -6.78125 C 9.566406 -7.164062 9.664062 -7.613281 9.53125 -8.125 C 9.394531 -8.613281 9.046875 -8.953125 8.484375 -9.140625 C 7.929688 -9.335938 7.28125 -9.421875 6.53125 -9.390625 C 5.789062 -9.367188 4.976562 -9.378906 4.09375 -9.421875 C 3.207031 -9.460938 2.367188 -9.546875 1.578125 -9.671875 C 0.796875 -9.804688 0.0703125 -10.160156 -0.59375 -10.734375 C -1.257812 -11.304688 -1.726562 -12.082031 -2 -13.0625 C -2.457031 -14.695312 -2.171875 -16.179688 -1.140625 -17.515625 C -0.109375 -18.859375 1.472656 -19.828125 3.609375 -20.421875 Z M 3.609375 -20.421875 "/></g></g></g><g fill="#004aad" fill-opacity="1"><g transform="translate(256.219844, 97.053795)"><g><path d="M 18.90625 -0.734375 L 14.203125 -0.546875 L 13.921875 -7.734375 L 6.265625 -7.4375 L 6.546875 -0.25 L 1.84375 -0.078125 L 1.125 -18.5625 L 5.828125 -18.734375 L 6.125 -11.125 L 13.78125 -11.421875 L 13.484375 -19.03125 L 18.1875 -19.21875 Z M 18.90625 -0.734375 "/></g></g></g><g fill="#004aad" fill-opacity="1"><g transform="translate(279.722774, 97.044638)"><g/></g></g><g fill="#004aad" fill-opacity="1"><g transform="translate(288.558754, 97.672402)"><g><path d="M 20.9375 7.296875 L 17.015625 5.921875 L 20.953125 -5.421875 L 13.40625 2.71875 L 10.515625 1.71875 L 9.65625 -9.359375 L 5.703125 1.984375 L 1.734375 0.609375 L 7.828125 -16.875 L 12.703125 -15.1875 L 13.8125 -3.125 L 22.1875 -11.875 L 27.03125 -10.1875 Z M 20.9375 7.296875 "/></g></g></g><g fill="#004aad" fill-opacity="1"><g transform="translate(313.205971, 107.382585)"><g><path d="M 5.609375 3.375 L 1.578125 0.953125 L 11.109375 -14.90625 L 15.140625 -12.484375 Z M 5.609375 3.375 "/></g></g></g><g fill="#004aad" fill-opacity="1"><g transform="translate(322.971432, 113.233459)"><g><path d="M 7.546875 1.234375 L 13.546875 6.296875 L 11 9.296875 L 1.40625 1.1875 L 13.359375 -12.9375 L 16.953125 -9.890625 Z M 7.546875 1.234375 "/></g></g></g><g fill="#004aad" fill-opacity="1"><g transform="translate(336.134324, 124.364612)"><g><path d="M 8.4375 11.046875 L 11.25 2.765625 L 7.578125 2.4375 L 3.96875 5.203125 L 1.125 1.46875 L 15.828125 -9.765625 L 18.671875 -6.03125 L 12.296875 -1.15625 L 22.984375 -0.390625 L 26.28125 3.921875 L 16.015625 3.125 L 11.859375 15.515625 Z M 8.4375 11.046875 "/></g></g></g><g clip-path="url(#fa8db74aa0)"><path fill="#004aad" d="M 215.027344 181.058594 C 214.945312 181.105469 214.851562 181.128906 214.75 181.125 C 214.472656 181.109375 214.261719 180.875 214.277344 180.597656 C 214.28125 180.496094 214.316406 180.40625 214.375 180.332031 C 214.085938 180.363281 213.855469 180.597656 213.839844 180.894531 C 213.820312 181.222656 214.074219 181.507812 214.40625 181.523438 C 214.703125 181.539062 214.964844 181.339844 215.027344 181.058594 Z M 316.871094 195.578125 C 316.910156 195.628906 316.9375 195.691406 316.9375 195.761719 C 316.949219 195.953125 316.804688 196.113281 316.613281 196.125 C 316.542969 196.125 316.476562 196.109375 316.421875 196.078125 C 316.464844 196.273438 316.644531 196.410156 316.847656 196.402344 C 317.078125 196.386719 317.253906 196.191406 317.242188 195.964844 C 317.226562 195.761719 317.070312 195.597656 316.871094 195.578125 Z M 306.648438 228.78125 L 304.585938 228.679688 C 304.453125 228.671875 304.324219 228.640625 304.210938 228.589844 L 304.027344 227.851562 L 304.011719 227.820312 C 304.011719 227.8125 303.640625 226.917969 303.433594 225.382812 C 303.296875 225.347656 303.15625 225.316406 303.011719 225.285156 C 303.21875 226.992188 303.640625 227.980469 303.640625 227.980469 L 303.820312 228.71875 C 305.066406 228.785156 306.3125 228.859375 307.5625 228.9375 C 307.289062 228.292969 306.851562 227.558594 306.179688 226.902344 Z M 210.609375 176.199219 C 209.101562 175.144531 206.957031 175.152344 205.242188 175.976562 C 205.242188 175.976562 206.425781 178.726562 210.808594 178.796875 L 210.183594 178.175781 L 211.085938 178.355469 C 211.085938 178.355469 209.824219 176.929688 207.753906 177.148438 C 207.753906 177.148438 209.941406 176.335938 211.355469 177.820312 L 211.015625 177.003906 L 211.78125 177.457031 C 211.46875 176.933594 211.070312 176.515625 210.609375 176.199219 Z M 318.457031 194.867188 C 318.457031 194.867188 318.191406 198.601562 316.835938 200.285156 C 316.089844 199.179688 315.175781 195.476562 316.746094 193.800781 C 318.316406 192.125 316.503906 190.574219 316.503906 190.574219 C 317.222656 191.230469 319.320312 190.089844 319.773438 186.871094 C 319.773438 186.871094 320.679688 190.792969 318.4375 192.4375 C 319.363281 191.878906 322.0625 190.539062 324.078125 192.40625 C 324.078125 192.40625 323.011719 195.386719 318.457031 194.867188 Z M 316.925781 201.777344 C 316.539062 203.582031 315.316406 201.945312 314.507812 201.933594 C 314.300781 201.929688 314.09375 201.921875 313.886719 201.902344 C 313.085938 201.832031 311.707031 203.34375 311.5 201.503906 C 311.269531 199.402344 314.300781 199.917969 314.300781 199.917969 C 314.300781 199.917969 317.367188 199.707031 316.925781 201.777344 Z M 312.703125 202.609375 C 312.84375 202.558594 312.984375 202.496094 313.121094 202.433594 C 313.390625 202.316406 313.671875 202.195312 313.851562 202.203125 L 313.863281 202.203125 C 313.96875 202.214844 314.078125 202.222656 314.183594 202.226562 C 314.289062 202.230469 314.398438 202.234375 314.503906 202.238281 L 314.515625 202.238281 C 314.695312 202.246094 314.960938 202.394531 315.21875 202.539062 C 315.351562 202.613281 315.484375 202.691406 315.621094 202.753906 C 315.1875 203.066406 314.050781 203.675781 312.703125 202.609375 Z M 284.160156 216 C 285.414062 214.570312 286.285156 212.386719 284.925781 210.523438 C 283.492188 208.566406 283.425781 206.398438 284.726562 204.085938 C 284.917969 203.742188 285.140625 203.398438 285.394531 203.050781 C 286.847656 201.046875 287.664062 198.71875 288.425781 196.445312 C 288.988281 196.371094 289.554688 196.273438 290.121094 196.140625 C 290.226562 196.113281 290.335938 196.089844 290.445312 196.066406 L 290.449219 196.164062 C 290.453125 196.265625 290.457031 196.371094 290.460938 196.476562 C 290.46875 196.65625 290.476562 196.84375 290.476562 197.03125 C 290.492188 197.585938 290.492188 198.160156 290.484375 198.789062 C 290.476562 199.570312 290.453125 200.371094 290.429688 201.144531 C 290.417969 201.550781 290.40625 201.957031 290.398438 202.359375 C 290.371094 203.347656 290.351562 204.636719 290.394531 205.898438 L 290.410156 206.382812 L 290.441406 206.902344 C 290.445312 206.996094 290.449219 207.085938 290.457031 207.183594 L 290.492188 207.601562 C 290.523438 207.96875 290.566406 208.34375 290.617188 208.738281 C 289.863281 210.574219 289.824219 212.304688 290.511719 213.882812 C 290.804688 214.558594 291.207031 215.148438 291.65625 215.667969 C 290.167969 215.882812 287.316406 216.203125 284.160156 216 Z M 222.164062 188.929688 C 221.871094 191.597656 219.867188 189.40625 218.703125 189.507812 C 218.402344 189.535156 218.101562 189.546875 217.800781 189.550781 C 216.628906 189.570312 214.855469 191.945312 214.296875 189.320312 C 213.65625 186.324219 218.105469 186.625 218.105469 186.625 C 218.105469 186.625 222.503906 185.882812 222.164062 188.929688 Z M 216.191406 190.742188 C 216.386719 190.648438 216.582031 190.539062 216.773438 190.429688 C 217.144531 190.222656 217.527344 190.003906 217.789062 189.992188 L 217.804688 189.992188 C 217.960938 189.988281 218.117188 189.984375 218.273438 189.976562 C 218.429688 189.96875 218.585938 189.957031 218.738281 189.945312 L 218.753906 189.945312 C 219.015625 189.929688 219.421875 190.109375 219.8125 190.28125 C 220.011719 190.367188 220.21875 190.457031 220.421875 190.53125 C 218.46875 192.078125 216.816406 191.195312 216.191406 190.742188 Z M 203.921875 175.730469 C 206.84375 173.027344 210.761719 174.96875 212.105469 175.773438 C 208.847656 173.390625 210.167969 167.703125 210.167969 167.703125 C 210.824219 172.371094 213.867188 174.027344 214.90625 173.070312 C 214.90625 173.070312 212.277344 175.328125 214.554688 177.753906 C 216.832031 180.183594 215.511719 185.554688 214.425781 187.160156 C 212.457031 184.71875 212.078125 179.304688 212.078125 179.304688 C 205.46875 180.054688 203.921875 175.730469 203.921875 175.730469 Z M 230.195312 224.511719 C 230.195312 224.511719 232.914062 218.089844 229.722656 208.925781 C 229.886719 208.992188 230.089844 209.074219 230.34375 209.171875 C 230.738281 209.324219 231.445312 209.59375 231.675781 209.742188 C 233.945312 214.933594 234.199219 219.363281 234.007812 222.171875 C 233.796875 225.234375 233.03125 227.085938 233.023438 227.105469 L 233.007812 227.144531 L 232.742188 228.214844 C 232.574219 228.289062 232.390625 228.335938 232.195312 228.34375 L 229.203125 228.496094 Z M 341.679688 164.800781 L 295.640625 164.800781 C 290.464844 164.800781 287.441406 158.855469 290.605469 154.769531 C 290.933594 154.347656 291.285156 154 291.671875 153.757812 C 292.667969 153.03125 293.863281 152.542969 295.175781 152.386719 C 295.253906 152.375 295.332031 152.371094 295.410156 152.363281 C 295.511719 152.347656 295.621094 152.332031 295.726562 152.320312 C 297.640625 152.089844 299.488281 152.429688 301.105469 153.207031 C 301.976562 152.378906 303.113281 151.808594 304.398438 151.65625 C 304.804688 151.609375 305.207031 151.601562 305.601562 151.636719 C 305.832031 146.996094 309.386719 143.058594 314.171875 142.488281 C 316.601562 142.195312 318.925781 142.824219 320.804688 144.097656 C 322.542969 142.382812 324.84375 141.210938 327.460938 140.898438 C 328.054688 140.824219 328.644531 140.804688 329.222656 140.824219 C 315.269531 122.785156 293.363281 111.183594 268.757812 111.246094 C 245.160156 111.304688 224.097656 122.078125 210.183594 138.933594 L 258.667969 140.816406 L 208.679688 140.816406 C 205.777344 144.570312 203.21875 148.601562 201.050781 152.863281 L 231.628906 154.050781 L 200.460938 154.050781 C 195.566406 164.109375 192.832031 175.410156 192.859375 187.347656 C 192.902344 203.691406 198.113281 218.8125 206.949219 231.179688 C 209.820312 230.867188 214.386719 230.40625 220.316406 229.929688 C 220.046875 229.179688 219.367188 228.046875 217.691406 227.769531 C 217.691406 227.769531 219.628906 227.558594 220.789062 229.523438 C 220.789062 229.523438 220.609375 227.609375 219.332031 227.238281 C 219.332031 227.238281 220.347656 227.238281 221.042969 228.570312 C 221.042969 228.570312 221.582031 226.386719 222.402344 226.175781 C 222.402344 226.175781 221.441406 227.054688 221.5625 228.832031 C 221.5625 228.832031 222.230469 228.109375 223.015625 227.980469 C 222.019531 228.640625 221.863281 229.417969 221.863281 229.417969 C 221.863281 229.417969 223.652344 228.089844 225.09375 228.886719 C 225.09375 228.886719 223.40625 228.417969 222.339844 229.769531 C 223.496094 229.679688 224.695312 229.589844 225.941406 229.503906 C 225.585938 228.804688 224.882812 228 223.5 227.769531 C 223.5 227.769531 225.390625 227.566406 226.554688 229.457031 C 226.566406 229.457031 226.578125 229.457031 226.589844 229.457031 C 226.542969 229.109375 226.277344 227.570312 225.144531 227.238281 C 225.144531 227.238281 226.160156 227.238281 226.851562 228.570312 C 226.851562 228.570312 227.390625 226.386719 228.214844 226.175781 C 228.214844 226.175781 227.253906 227.054688 227.371094 228.832031 C 227.371094 228.832031 228.042969 228.109375 228.824219 227.980469 C 227.960938 228.554688 227.730469 229.214844 227.683594 229.378906 C 227.699219 229.378906 227.71875 229.378906 227.734375 229.375 C 228.058594 229.15625 229.621094 228.175781 230.902344 228.886719 C 230.902344 228.886719 229.640625 228.535156 228.605469 229.316406 C 230.066406 229.21875 231.582031 229.121094 233.148438 229.03125 L 233.570312 227.335938 C 233.570312 227.335938 236.761719 219.800781 232.175781 209.410156 C 232.035156 209.09375 230.046875 208.480469 229.652344 208.238281 C 228.796875 207.722656 228.007812 207.101562 227.328125 206.367188 C 224.238281 203.039062 225.128906 198.589844 223.019531 194.886719 C 222.679688 194.289062 220.746094 191.765625 221.421875 191.046875 C 224.589844 187.675781 224.085938 183.679688 224.085938 183.679688 C 224.039062 186.257812 223.085938 188.160156 222.296875 189.300781 C 222.558594 188.667969 222.578125 187.820312 221.8125 186.792969 C 220.574219 185.304688 218.722656 180.089844 220.746094 177.445312 C 222.769531 174.804688 219.929688 172.820312 219.929688 172.820312 C 221.058594 173.671875 223.921875 171.71875 224.109375 167.007812 C 224.109375 167.007812 225.988281 172.535156 222.988281 175.234375 C 224.246094 174.296875 227.949219 171.976562 231.125 174.375 C 231.125 174.375 230.441406 177.125 226.921875 178.261719 C 227.152344 178.183594 228.878906 179.253906 229.21875 179.382812 C 230.167969 179.738281 231.15625 179.996094 232.144531 180.222656 C 234.175781 180.691406 235.976562 180.691406 238.058594 180.597656 C 243.09375 180.367188 248.21875 179.988281 253.179688 181.148438 C 258.941406 182.492188 264.546875 181.597656 270.335938 180.902344 C 273.675781 180.5 280.15625 178.808594 283.113281 181.195312 C 284.769531 182.53125 286.433594 183.96875 287.636719 185.613281 C 287.875 185.714844 288.128906 185.832031 288.390625 185.972656 C 288.507812 186.035156 288.628906 186.101562 288.75 186.171875 L 288.792969 186.199219 L 288.855469 186.238281 L 288.863281 186.242188 L 288.882812 186.257812 L 288.953125 186.304688 C 289 186.339844 289.046875 186.375 289.097656 186.40625 C 289.265625 186.515625 289.542969 186.746094 289.78125 186.949219 C 289.847656 187 289.890625 187.050781 289.945312 187.101562 C 289.996094 187.15625 290.046875 187.210938 290.097656 187.261719 C 290.152344 187.316406 290.203125 187.367188 290.253906 187.421875 C 290.304688 187.476562 290.347656 187.535156 290.398438 187.59375 C 290.492188 187.710938 290.589844 187.824219 290.679688 187.945312 C 290.761719 188.066406 290.847656 188.1875 290.933594 188.316406 C 291.59375 189.324219 292.011719 190.480469 292.265625 191.667969 C 292.390625 192.261719 292.484375 192.867188 292.535156 193.476562 C 292.550781 193.628906 292.558594 193.785156 292.570312 193.9375 C 292.582031 194.089844 292.589844 194.246094 292.59375 194.398438 L 292.601562 194.628906 L 292.601562 194.6875 L 292.605469 194.726562 L 292.605469 194.863281 C 292.605469 195.011719 292.609375 195.160156 292.609375 195.308594 C 292.609375 195.453125 292.605469 195.609375 292.605469 195.765625 C 292.601562 195.917969 292.597656 196.074219 292.59375 196.226562 C 292.582031 196.53125 292.574219 196.839844 292.558594 197.140625 C 292.523438 197.75 292.480469 198.359375 292.425781 198.964844 C 292.324219 200.171875 292.1875 201.371094 292.074219 202.542969 C 291.957031 203.71875 291.859375 204.867188 291.8125 205.980469 C 291.808594 206.121094 291.800781 206.257812 291.796875 206.394531 L 291.796875 206.441406 L 291.792969 206.496094 L 291.792969 206.601562 L 291.789062 206.808594 C 291.789062 206.945312 291.785156 207.085938 291.785156 207.21875 C 291.785156 207.355469 291.789062 207.488281 291.789062 207.621094 C 291.792969 208.023438 291.808594 208.425781 291.835938 208.820312 C 292.5625 209.023438 293.6875 209.894531 293.941406 213.324219 C 293.941406 213.324219 294.359375 217.464844 295.921875 218.0625 C 295.921875 218.0625 288.386719 215.335938 291.152344 208.90625 C 291.09375 208.5 291.046875 208.082031 291.007812 207.65625 C 291 207.515625 290.984375 207.378906 290.976562 207.238281 C 290.964844 207.101562 290.957031 206.964844 290.949219 206.824219 L 290.9375 206.617188 L 290.925781 206.460938 L 290.925781 206.402344 C 290.921875 206.261719 290.914062 206.121094 290.910156 205.976562 C 290.871094 204.835938 290.886719 203.660156 290.914062 202.472656 C 290.941406 201.285156 290.988281 200.085938 291 198.894531 C 291.007812 198.296875 291.007812 197.707031 290.996094 197.117188 C 290.992188 196.824219 290.976562 196.53125 290.96875 196.238281 C 290.960938 196.097656 290.953125 195.953125 290.945312 195.8125 C 290.933594 195.667969 290.929688 195.53125 290.917969 195.378906 C 290.902344 195.234375 290.894531 195.085938 290.878906 194.9375 L 290.871094 194.828125 L 290.871094 194.800781 C 290.867188 194.785156 290.871094 194.804688 290.867188 194.796875 L 290.867188 194.785156 L 290.863281 194.730469 L 290.839844 194.523438 C 290.824219 194.386719 290.808594 194.246094 290.789062 194.109375 C 290.765625 193.976562 290.75 193.835938 290.726562 193.703125 C 290.640625 193.160156 290.515625 192.640625 290.375 192.140625 C 290.136719 191.328125 289.8125 190.582031 289.410156 189.964844 C 289.515625 191.105469 289.363281 192.339844 288.863281 193.683594 C 287.714844 196.789062 286.945312 200.128906 284.972656 202.847656 C 284.714844 203.203125 284.480469 203.566406 284.273438 203.929688 C 283.007812 206.179688 282.800781 208.59375 284.507812 210.925781 C 285.722656 212.59375 284.886719 214.632812 283.527344 216.023438 C 281.839844 217.742188 280.324219 222.832031 279.738281 225 C 279.574219 225.597656 279.046875 226.023438 278.429688 226.054688 L 278.035156 227.808594 C 278.027344 227.835938 278.019531 227.863281 278.011719 227.890625 C 278.605469 227.894531 279.199219 227.902344 279.796875 227.910156 C 279.5625 227.828125 279.367188 227.644531 279.28125 227.390625 C 279.195312 227.136719 279.0625 226.816406 278.851562 226.4375 L 278.859375 226.410156 C 279.519531 226.234375 280.050781 225.71875 280.234375 225.039062 C 280.277344 224.890625 280.316406 224.746094 280.359375 224.597656 C 281.140625 225.8125 281.792969 226.707031 281.792969 226.707031 L 282.566406 227.953125 C 288.496094 228.054688 294.601562 228.25 300.828125 228.558594 L 300.527344 228.394531 C 300.167969 228.195312 299.949219 227.816406 299.960938 227.40625 C 299.996094 225.851562 299.984375 221.9375 299.023438 219.75 C 298.492188 218.546875 298.472656 217.339844 298.625 216.363281 C 297.300781 216.3125 296.078125 216.160156 295.085938 215.996094 C 294.765625 215.125 294.542969 214.035156 294.457031 213.179688 C 294.222656 210.003906 293.238281 208.789062 292.332031 208.359375 C 292.316406 208.070312 292.308594 207.789062 292.304688 207.515625 L 292.300781 207.121094 C 292.300781 207.039062 292.304688 206.953125 292.304688 206.867188 C 292.304688 206.816406 292.3125 206.359375 292.3125 206.359375 L 292.332031 205.902344 C 292.378906 204.695312 292.492188 203.449219 292.589844 202.496094 C 292.628906 202.097656 292.667969 201.695312 292.710938 201.292969 C 292.789062 200.515625 292.875 199.710938 292.941406 198.910156 C 293 198.257812 293.042969 197.65625 293.074219 197.074219 C 293.085938 196.871094 293.09375 196.667969 293.101562 196.46875 C 293.105469 196.363281 293.109375 196.257812 293.113281 196.152344 L 293.121094 195.683594 C 295.585938 195.484375 298.078125 195.648438 300.546875 195.761719 C 301.980469 195.824219 303.21875 195.824219 304.621094 195.503906 C 305.304688 195.347656 305.984375 195.167969 306.640625 194.921875 C 306.871094 194.835938 308.0625 194.097656 308.222656 194.148438 C 305.796875 193.367188 305.324219 191.472656 305.324219 191.472656 C 307.515625 189.816406 310.066406 191.417969 310.933594 192.0625 C 308.867188 190.203125 310.160156 186.390625 310.160156 186.390625 C 310.289062 189.640625 312.261719 190.984375 313.042969 190.402344 C 313.042969 190.402344 311.085938 191.765625 312.480469 193.589844 C 313.875 195.410156 312.597656 199.003906 311.742188 200.03125 C 311.214844 200.738281 311.230469 201.328125 311.410156 201.761719 C 310.867188 200.972656 310.207031 199.660156 310.175781 197.886719 C 310.175781 197.886719 309.828125 200.640625 312.015625 202.964844 C 312.476562 203.460938 311.144531 205.199219 310.910156 205.609375 C 309.460938 208.164062 310.070312 211.230469 307.941406 213.527344 C 307.472656 214.03125 306.929688 214.460938 306.339844 214.816406 C 306.066406 214.984375 304.695312 215.40625 304.597656 215.625 C 302.835938 219.621094 302.742188 223.007812 303.003906 225.214844 C 303.113281 225.214844 303.25 225.21875 303.414062 225.230469 C 303.382812 224.976562 303.359375 224.707031 303.335938 224.421875 C 303.207031 222.484375 303.378906 219.429688 304.945312 215.851562 C 305.101562 215.75 305.589844 215.5625 305.859375 215.460938 C 306.039062 215.390625 306.179688 215.335938 306.289062 215.289062 C 304.273438 221.085938 305.683594 225.289062 305.929688 225.941406 C 306.859375 226.429688 307.832031 227.234375 308.617188 228.570312 C 308.617188 228.570312 308.28125 224.925781 305.847656 224.214844 C 305.847656 224.214844 307.78125 224.214844 309.097656 226.746094 C 309.097656 226.746094 310.125 222.597656 311.691406 222.195312 C 311.691406 222.195312 309.859375 223.867188 310.085938 227.253906 C 310.085938 227.253906 311.363281 225.871094 312.851562 225.632812 C 310.957031 226.882812 310.660156 228.367188 310.660156 228.367188 C 310.660156 228.367188 314.066406 225.835938 316.804688 227.355469 C 316.804688 227.355469 313.460938 226.417969 311.441406 229.195312 C 317.917969 229.648438 324.488281 230.234375 331.089844 230.976562 C 339.910156 218.546875 345.074219 203.359375 345.035156 186.972656 C 345.015625 179.253906 343.84375 171.8125 341.679688 164.800781 Z M 229.746094 174.753906 C 227.957031 174.105469 225.824219 174.308594 224.425781 175.507812 C 224 175.875 223.644531 176.328125 223.386719 176.878906 L 224.101562 176.351562 L 223.847656 177.199219 C 225.105469 175.578125 227.363281 176.167969 227.363281 176.167969 C 225.28125 176.160156 224.171875 177.703125 224.171875 177.703125 L 225.046875 177.4375 L 224.488281 178.113281 C 228.839844 177.609375 229.746094 174.753906 229.746094 174.753906 Z M 220.898438 180.820312 C 220.796875 180.832031 220.699219 180.820312 220.613281 180.78125 C 220.707031 181.054688 220.980469 181.230469 221.277344 181.183594 C 221.605469 181.132812 221.828125 180.824219 221.777344 180.496094 C 221.730469 180.203125 221.480469 179.996094 221.191406 179.992188 C 221.253906 180.0625 221.300781 180.148438 221.316406 180.246094 C 221.355469 180.519531 221.171875 180.773438 220.898438 180.820312 Z M 309.941406 192.253906 C 308.976562 191.425781 307.507812 191.285156 306.273438 191.730469 C 306.273438 191.730469 306.898438 193.699219 309.898438 194.050781 L 309.511719 193.582031 L 310.117188 193.765625 C 310.117188 193.765625 309.351562 192.699219 307.917969 192.707031 C 307.917969 192.707031 309.476562 192.300781 310.339844 193.417969 L 310.164062 192.832031 L 310.660156 193.199219 C 310.480469 192.816406 310.234375 192.503906 309.941406 192.253906 Z M 312.171875 195.339844 C 311.972656 195.34375 311.800781 195.488281 311.769531 195.691406 C 311.734375 195.917969 311.886719 196.128906 312.113281 196.164062 C 312.316406 196.195312 312.507812 196.074219 312.570312 195.886719 C 312.511719 195.914062 312.445312 195.921875 312.375 195.914062 C 312.1875 195.882812 312.058594 195.707031 312.085938 195.519531 C 312.097656 195.453125 312.128906 195.390625 312.171875 195.339844 Z M 278.800781 192.382812 C 278.699219 193.277344 278.199219 194.085938 278.09375 194.980469 C 278.039062 195.433594 278.089844 195.894531 278.207031 196.332031 C 278.4375 197.191406 278.972656 198.015625 279.796875 198.339844 C 280.625 198.667969 281.726562 198.316406 282.015625 197.480469 C 282.09375 198.050781 282.847656 198.398438 283.335938 198.09375 C 283.6875 197.871094 283.828125 197.4375 283.996094 197.054688 C 284.886719 195.035156 287.167969 193.644531 287.359375 191.445312 C 287.460938 190.269531 286.902344 189.113281 286.109375 188.242188 C 285.320312 187.363281 284.308594 186.722656 283.316406 186.082031 C 282.871094 185.796875 282.402344 185.480469 282.210938 184.992188 C 282.042969 184.574219 282.109375 184.105469 282.066406 183.65625 C 282.019531 183.210938 281.78125 182.710938 281.335938 182.636719 L 281.851562 182.65625 C 280.648438 182.5 279.460938 181.269531 278.4375 181.914062 C 278.003906 182.183594 277.816406 182.703125 277.53125 183.121094 C 276.625 184.457031 274.785156 184.769531 273.167969 184.6875 C 272.976562 184.675781 272.761719 184.667969 272.613281 184.792969 C 272.480469 184.90625 272.445312 185.097656 272.417969 185.269531 C 272.230469 186.488281 272.164062 187.992188 273.195312 188.667969 C 274.046875 189.226562 275.179688 188.875 276.1875 189.015625 C 277.753906 189.226562 278.988281 190.820312 278.800781 192.382812 Z M 319.464844 192.726562 C 319.148438 192.949219 318.875 193.234375 318.660156 193.59375 L 319.1875 193.285156 L 318.953125 193.847656 C 319.925781 192.820312 321.4375 193.382812 321.4375 193.382812 C 320.007812 193.230469 319.140625 194.214844 319.140625 194.214844 L 319.761719 194.09375 L 319.328125 194.519531 C 322.351562 194.46875 323.167969 192.574219 323.167969 192.574219 C 321.984375 192.007812 320.507812 192 319.464844 192.726562 Z M 272.570312 227.078125 C 272.515625 227.226562 272.5 227.3125 272.5 227.3125 C 272.5 227.3125 272.578125 227.253906 272.726562 227.160156 L 272.710938 227.097656 C 272.664062 227.097656 272.617188 227.089844 272.570312 227.078125 Z M 273.199219 227.863281 C 273.316406 227.863281 273.433594 227.863281 273.546875 227.863281 L 273.78125 227.507812 C 273.78125 227.507812 273.820312 227.386719 273.890625 227.171875 C 273.648438 227.359375 273.414062 227.585938 273.199219 227.863281 Z M 270.660156 225.132812 C 270.867188 225.375 271.070312 225.667969 271.257812 226.027344 C 271.257812 226.027344 271.339844 225.699219 271.488281 225.242188 C 271.441406 225.09375 271.394531 224.9375 271.34375 224.777344 C 271.113281 224.882812 270.886719 225 270.660156 225.132812 Z M 251.488281 207.308594 C 251.554688 207.339844 251.625 207.367188 251.695312 207.394531 C 252.15625 207.605469 252.953125 208.035156 253.851562 208.226562 C 254.199219 208.582031 255.121094 208.867188 255.378906 208.898438 C 256.457031 209.03125 257.828125 208.640625 258.886719 208.441406 C 261.222656 207.992188 263.507812 207.273438 265.679688 206.300781 C 266.066406 206.125 266.496094 205.886719 266.570312 205.46875 C 266.640625 205.070312 266.34375 204.703125 266.023438 204.457031 C 265.402344 203.976562 264.632812 203.738281 263.949219 203.347656 C 263.265625 202.960938 262.625 202.332031 262.59375 201.546875 C 262.539062 200.101562 264.519531 199.03125 264.152344 197.632812 C 263.890625 196.644531 262.636719 196.335938 261.613281 196.359375 C 261.09375 196.371094 260.519531 196.449219 260.175781 196.839844 C 259.65625 197.429688 259.941406 198.386719 259.585938 199.089844 C 258.898438 200.445312 256.523438 199.910156 255.683594 201.175781 C 255 202.214844 255.769531 203.894531 254.828125 204.707031 C 254.246094 205.207031 253.371094 205.039062 252.613281 205.144531 C 251.523438 205.300781 249.75 206.503906 251.488281 207.308594 Z M 238.238281 197.78125 C 238.882812 197.480469 239.398438 196.960938 239.988281 196.558594 C 240.574219 196.160156 241.328125 195.871094 241.996094 196.117188 C 242.832031 196.429688 243.167969 197.394531 243.550781 198.199219 C 243.867188 198.871094 244.304688 199.515625 244.929688 199.910156 C 245.558594 200.308594 246.410156 200.414062 247.046875 200.027344 C 247.777344 199.585938 248.039062 198.609375 247.867188 197.777344 C 247.699219 196.941406 247.179688 196.222656 246.636719 195.570312 C 245.171875 193.8125 243.40625 192.308594 241.4375 191.140625 C 240.695312 190.699219 239.292969 190.734375 238.789062 189.925781 C 238.445312 189.371094 238.710938 188.601562 238.75 187.996094 C 238.78125 187.5 238.6875 187.042969 238.40625 186.625 C 238.011719 186.050781 236.980469 185.582031 237.207031 184.734375 C 237.386719 184.066406 238.335938 183.898438 238.535156 183.21875 C 238.769531 182.425781 237.792969 181.804688 236.96875 181.726562 C 236.480469 181.679688 236 181.710938 235.53125 181.792969 C 234.660156 182 232.589844 182.226562 231.160156 185.953125 C 230.894531 186.964844 231.074219 188.160156 231.867188 188.839844 C 232.789062 189.628906 234.363281 189.628906 234.917969 190.707031 C 235.519531 191.882812 234.382812 193.171875 234.09375 194.460938 C 233.855469 195.53125 234.273438 196.722656 235.128906 197.40625 C 235.988281 198.09375 237.242188 198.246094 238.238281 197.78125 Z M 269.148438 226.382812 L 269.34375 226.597656 C 269.285156 226.523438 269.21875 226.449219 269.152344 226.375 C 269.152344 226.375 269.148438 226.378906 269.148438 226.382812 Z M 269.582031 225.945312 C 270.039062 226.320312 270.484375 226.816406 270.875 227.476562 C 270.875 227.476562 270.773438 226.378906 270.246094 225.40625 C 270.019531 225.566406 269.796875 225.746094 269.582031 225.945312 Z M 274.875 222.066406 C 274.738281 221.933594 274.609375 221.796875 274.488281 221.660156 C 274.371094 221.144531 274.28125 220.6875 274.238281 220.335938 L 274.285156 220.292969 C 274.785156 219.847656 275.269531 219.417969 275.707031 218.976562 C 275.464844 219.949219 275.171875 221.015625 274.875 222.066406 Z M 271.46875 207.929688 C 262.226562 211.664062 250.355469 209.359375 249.421875 209.234375 C 249.421875 209.234375 245.546875 210.304688 240.84375 210.480469 C 241.058594 211.898438 241.035156 213.648438 240.265625 215.394531 C 238.871094 218.566406 238.851562 224.246094 238.90625 226.5 C 238.921875 227.09375 238.601562 227.644531 238.082031 227.933594 L 236.980469 228.539062 L 236.996094 228.8125 C 240.289062 228.632812 243.773438 228.46875 247.429688 228.332031 C 247.101562 226.757812 245.691406 222.25 240.082031 221.320312 C 240.082031 221.320312 245.234375 220.753906 248.316406 225.984375 C 248.316406 225.984375 247.847656 220.894531 244.449219 219.90625 C 244.449219 219.90625 247.148438 219.90625 248.992188 223.441406 C 248.992188 223.441406 250.421875 217.644531 252.613281 217.078125 C 252.613281 217.078125 250.054688 219.417969 250.371094 224.148438 C 250.371094 224.148438 252.15625 222.214844 254.234375 221.882812 C 251.589844 223.628906 251.175781 225.703125 251.175781 225.703125 C 251.175781 225.703125 255.933594 222.167969 259.761719 224.289062 C 259.761719 224.289062 254.101562 222.707031 251.472656 228.191406 C 255.308594 228.066406 259.304688 227.976562 263.445312 227.917969 C 262.890625 225.9375 261.15625 222.113281 255.953125 221.25 C 255.953125 221.25 261.316406 220.660156 264.523438 226.109375 C 264.523438 226.109375 264.203125 222.628906 262.199219 220.761719 C 261.386719 221.324219 260.652344 221.589844 260.652344 221.589844 C 261.078125 221.425781 261.378906 220.882812 261.589844 220.28125 C 261.265625 220.070312 260.902344 219.898438 260.5 219.78125 C 260.5 219.78125 260.976562 219.78125 261.671875 220.035156 C 261.929688 219.191406 262.019531 218.320312 262.019531 218.320312 C 262.195312 215.960938 262.96875 215.355469 263.46875 215.21875 C 263.488281 214.945312 263.5 214.667969 263.5 214.390625 C 263.503906 214.296875 263.503906 214.207031 263.503906 214.113281 C 263.503906 214.019531 263.503906 213.925781 263.5 213.828125 L 263.5 213.613281 L 263.496094 213.578125 L 263.496094 213.546875 C 263.492188 213.453125 263.488281 213.355469 263.484375 213.257812 C 263.453125 212.492188 263.386719 211.699219 263.304688 210.890625 C 263.285156 210.679688 263.265625 210.472656 263.242188 210.261719 C 263.527344 210.234375 263.808594 210.203125 264.085938 210.167969 C 264.09375 210.394531 264.097656 210.617188 264.105469 210.84375 C 264.125 211.660156 264.136719 212.472656 264.109375 213.257812 C 264.105469 213.355469 264.101562 213.453125 264.097656 213.550781 L 264.09375 213.589844 L 264.09375 213.628906 L 264.089844 213.699219 L 264.082031 213.84375 C 264.074219 213.9375 264.070312 214.03125 264.0625 214.125 C 264.054688 214.222656 264.046875 214.320312 264.039062 214.414062 C 264.015625 214.710938 263.980469 214.996094 263.941406 215.277344 C 265.023438 217.789062 263.820312 219.484375 262.578125 220.476562 C 263.429688 220.992188 264.410156 221.890625 265.222656 223.457031 C 265.222656 223.457031 266.382812 218.765625 268.222656 217.253906 C 268.285156 217.054688 268.382812 216.859375 268.523438 216.667969 C 269.699219 215.0625 269.554688 213.398438 268.683594 211.847656 C 268.539062 211.59375 268.378906 211.34375 268.199219 211.097656 C 267.863281 210.632812 267.574219 210.136719 267.320312 209.628906 C 267.839844 209.515625 268.351562 209.390625 268.847656 209.253906 L 268.941406 209.425781 C 270.171875 211.613281 270.722656 213.410156 270.539062 214.625 C 270.351562 215.859375 269.519531 217.617188 268.546875 219.339844 C 268.289062 218.898438 268.128906 218.421875 268.117188 217.945312 C 267.433594 219.015625 266.605469 220.863281 266.636719 223.496094 C 268.234375 221.105469 270.699219 217.125 271.050781 214.796875 C 271.292969 213.199219 270.414062 211.089844 269.394531 209.273438 C 270.035156 209.082031 270.65625 208.875 271.253906 208.648438 C 271.957031 209.628906 272.773438 210.589844 273.5625 211.523438 C 274.867188 213.070312 276.21875 214.667969 276.261719 215.519531 C 276.289062 216.023438 276.121094 216.984375 275.851562 218.164062 C 275.265625 218.839844 274.527344 219.484375 273.769531 220.15625 C 271.847656 221.871094 270.652344 223.3125 269.910156 224.460938 C 269.914062 224.464844 269.917969 224.46875 269.921875 224.46875 C 270.289062 224.3125 270.683594 224.164062 271.101562 224.039062 C 271.066406 223.9375 271.03125 223.832031 270.996094 223.730469 C 271.664062 222.855469 272.59375 221.824219 273.875 220.660156 C 273.992188 221.378906 274.226562 222.351562 274.496094 223.355469 C 274.464844 223.464844 274.429688 223.578125 274.398438 223.6875 C 274.578125 223.707031 274.757812 223.738281 274.941406 223.777344 C 275.835938 220.769531 276.917969 216.824219 276.851562 215.488281 C 276.769531 213.816406 273.472656 210.851562 271.46875 207.929688 Z M 274.265625 224.125 C 274.152344 224.503906 274.042969 224.867188 273.933594 225.214844 C 274.035156 225.183594 274.132812 225.160156 274.234375 225.144531 C 274.105469 225.230469 273.988281 225.316406 273.875 225.40625 C 273.71875 225.902344 273.574219 226.359375 273.449219 226.75 C 273.648438 226.652344 273.871094 226.550781 274.117188 226.464844 C 274.304688 225.863281 274.558594 225.050781 274.835938 224.128906 C 274.65625 224.121094 274.464844 224.121094 274.265625 224.125 Z M 254.507812 190.289062 C 254.261719 190.457031 253.96875 190.539062 253.714844 190.6875 C 253.457031 190.832031 253.222656 191.082031 253.226562 191.375 C 253.234375 191.65625 253.460938 191.890625 253.722656 191.984375 C 253.984375 192.082031 254.273438 192.058594 254.550781 192.011719 C 256.007812 191.757812 257.316406 190.777344 257.96875 189.449219 C 258.144531 189.089844 258.320312 188.660156 258.707031 188.546875 C 258.945312 188.476562 259.214844 188.546875 259.4375 188.441406 C 259.730469 188.304688 259.820312 187.902344 259.679688 187.613281 C 259.539062 187.324219 259.226562 187.152344 258.910156 187.101562 C 258.65625 187.058594 258.382812 187.085938 258.113281 187.101562 C 257.585938 185.597656 255.671875 187.183594 255.671875 187.183594 C 255.320312 187.289062 255.050781 187.519531 255.015625 187.976562 C 254.984375 188.414062 255.148438 188.851562 255.105469 189.285156 C 255.066406 189.6875 254.839844 190.066406 254.507812 190.289062 " fill-opacity="1" fill-rule="nonzero"/></g></svg>